<mxfile host="app.diagrams.net" agent="Mozilla/5.0 (Windows NT 10.0; Win64; x64) AppleWebKit/537.36 (KHTML, like Gecko) Chrome/130.0.0.0 Safari/537.36" version="24.8.4">
  <diagram id="C5RBs43oDa-KdzZeNtuy" name="Page-1">
    <mxGraphModel dx="1466" dy="619" grid="1" gridSize="10" guides="1" tooltips="1" connect="1" arrows="1" fold="1" page="1" pageScale="1" pageWidth="827" pageHeight="1169" math="0" shadow="0">
      <root>
        <mxCell id="WIyWlLk6GJQsqaUBKTNV-0" />
        <mxCell id="WIyWlLk6GJQsqaUBKTNV-1" parent="WIyWlLk6GJQsqaUBKTNV-0" />
        <mxCell id="ptES-6XvapHSugwiSKhB-0" value="Libro" style="swimlane;fontStyle=1;align=center;verticalAlign=top;childLayout=stackLayout;horizontal=1;startSize=26;horizontalStack=0;resizeParent=1;resizeParentMax=0;resizeLast=0;collapsible=1;marginBottom=0;whiteSpace=wrap;html=1;" parent="WIyWlLk6GJQsqaUBKTNV-1" vertex="1">
          <mxGeometry x="30" y="120" width="310" height="200" as="geometry" />
        </mxCell>
        <mxCell id="ptES-6XvapHSugwiSKhB-1" value="+ titulo: String&lt;div&gt;+ autor: String&lt;/div&gt;&lt;div&gt;-&amp;nbsp;ISBN: String&lt;/div&gt;&lt;div&gt;+ anioPublicacion: Date&lt;/div&gt;&lt;div&gt;+ estado: boolean&lt;/div&gt;&lt;div&gt;+ observacion: String&lt;/div&gt;" style="text;strokeColor=none;fillColor=none;align=left;verticalAlign=top;spacingLeft=4;spacingRight=4;overflow=hidden;rotatable=0;points=[[0,0.5],[1,0.5]];portConstraint=eastwest;whiteSpace=wrap;html=1;" parent="ptES-6XvapHSugwiSKhB-0" vertex="1">
          <mxGeometry y="26" width="310" height="94" as="geometry" />
        </mxCell>
        <mxCell id="ptES-6XvapHSugwiSKhB-2" value="" style="line;strokeWidth=1;fillColor=none;align=left;verticalAlign=middle;spacingTop=-1;spacingLeft=3;spacingRight=3;rotatable=0;labelPosition=right;points=[];portConstraint=eastwest;strokeColor=inherit;" parent="ptES-6XvapHSugwiSKhB-0" vertex="1">
          <mxGeometry y="120" width="310" height="8" as="geometry" />
        </mxCell>
        <mxCell id="ptES-6XvapHSugwiSKhB-3" value="+ prestar(String titulo): void&lt;div&gt;+ devolver(Libro libro): String&lt;/div&gt;&lt;div&gt;+ mostrarInformacion(ArrayList&amp;lt;Libro&amp;gt; libro): ArrayList&amp;lt;Libro&amp;gt;&lt;/div&gt;" style="text;strokeColor=none;fillColor=none;align=left;verticalAlign=top;spacingLeft=4;spacingRight=4;overflow=hidden;rotatable=0;points=[[0,0.5],[1,0.5]];portConstraint=eastwest;whiteSpace=wrap;html=1;" parent="ptES-6XvapHSugwiSKhB-0" vertex="1">
          <mxGeometry y="128" width="310" height="72" as="geometry" />
        </mxCell>
        <mxCell id="bq4Kn2e6vNmMjqOHsvpG-0" value="Usuario" style="swimlane;fontStyle=1;align=center;verticalAlign=top;childLayout=stackLayout;horizontal=1;startSize=26;horizontalStack=0;resizeParent=1;resizeParentMax=0;resizeLast=0;collapsible=1;marginBottom=0;whiteSpace=wrap;html=1;" vertex="1" parent="WIyWlLk6GJQsqaUBKTNV-1">
          <mxGeometry x="270" y="410" width="310" height="190" as="geometry" />
        </mxCell>
        <mxCell id="bq4Kn2e6vNmMjqOHsvpG-1" value="+ nombre: String&lt;div&gt;+ cedula: int&lt;/div&gt;&lt;div&gt;-&amp;nbsp;lstLibros: ArrayList&amp;lt;Libros&amp;gt;&lt;br&gt;&lt;/div&gt;&lt;div&gt;- cantidadLibrosPrestado: int&lt;/div&gt;" style="text;strokeColor=none;fillColor=none;align=left;verticalAlign=top;spacingLeft=4;spacingRight=4;overflow=hidden;rotatable=0;points=[[0,0.5],[1,0.5]];portConstraint=eastwest;whiteSpace=wrap;html=1;" vertex="1" parent="bq4Kn2e6vNmMjqOHsvpG-0">
          <mxGeometry y="26" width="310" height="64" as="geometry" />
        </mxCell>
        <mxCell id="bq4Kn2e6vNmMjqOHsvpG-2" value="" style="line;strokeWidth=1;fillColor=none;align=left;verticalAlign=middle;spacingTop=-1;spacingLeft=3;spacingRight=3;rotatable=0;labelPosition=right;points=[];portConstraint=eastwest;strokeColor=inherit;" vertex="1" parent="bq4Kn2e6vNmMjqOHsvpG-0">
          <mxGeometry y="90" width="310" height="8" as="geometry" />
        </mxCell>
        <mxCell id="bq4Kn2e6vNmMjqOHsvpG-3" value="+ agregarLibro(ArrayList&amp;lt;Libro&amp;gt; libro, Usuario usuario): boolean&lt;div&gt;+ devolver(ArrayList&amp;lt;Libro&amp;gt; libro, Usuario usuario): String&lt;/div&gt;&lt;div&gt;+ mostrarInformacion(Usuario usuario): Usuario&lt;/div&gt;" style="text;strokeColor=none;fillColor=none;align=left;verticalAlign=top;spacingLeft=4;spacingRight=4;overflow=hidden;rotatable=0;points=[[0,0.5],[1,0.5]];portConstraint=eastwest;whiteSpace=wrap;html=1;" vertex="1" parent="bq4Kn2e6vNmMjqOHsvpG-0">
          <mxGeometry y="98" width="310" height="92" as="geometry" />
        </mxCell>
        <mxCell id="bq4Kn2e6vNmMjqOHsvpG-4" value="Estudiante" style="swimlane;fontStyle=1;align=center;verticalAlign=top;childLayout=stackLayout;horizontal=1;startSize=26;horizontalStack=0;resizeParent=1;resizeParentMax=0;resizeLast=0;collapsible=1;marginBottom=0;whiteSpace=wrap;html=1;" vertex="1" parent="WIyWlLk6GJQsqaUBKTNV-1">
          <mxGeometry x="60" y="660" width="310" height="200" as="geometry" />
        </mxCell>
        <mxCell id="bq4Kn2e6vNmMjqOHsvpG-5" value="&lt;br&gt;&lt;div&gt;-&amp;nbsp;carrera: String&lt;br&gt;&lt;/div&gt;" style="text;strokeColor=none;fillColor=none;align=left;verticalAlign=top;spacingLeft=4;spacingRight=4;overflow=hidden;rotatable=0;points=[[0,0.5],[1,0.5]];portConstraint=eastwest;whiteSpace=wrap;html=1;" vertex="1" parent="bq4Kn2e6vNmMjqOHsvpG-4">
          <mxGeometry y="26" width="310" height="94" as="geometry" />
        </mxCell>
        <mxCell id="bq4Kn2e6vNmMjqOHsvpG-6" value="" style="line;strokeWidth=1;fillColor=none;align=left;verticalAlign=middle;spacingTop=-1;spacingLeft=3;spacingRight=3;rotatable=0;labelPosition=right;points=[];portConstraint=eastwest;strokeColor=inherit;" vertex="1" parent="bq4Kn2e6vNmMjqOHsvpG-4">
          <mxGeometry y="120" width="310" height="8" as="geometry" />
        </mxCell>
        <mxCell id="bq4Kn2e6vNmMjqOHsvpG-7" value="&amp;nbsp;" style="text;strokeColor=none;fillColor=none;align=left;verticalAlign=top;spacingLeft=4;spacingRight=4;overflow=hidden;rotatable=0;points=[[0,0.5],[1,0.5]];portConstraint=eastwest;whiteSpace=wrap;html=1;" vertex="1" parent="bq4Kn2e6vNmMjqOHsvpG-4">
          <mxGeometry y="128" width="310" height="72" as="geometry" />
        </mxCell>
        <mxCell id="bq4Kn2e6vNmMjqOHsvpG-8" value="Profesor" style="swimlane;fontStyle=1;align=center;verticalAlign=top;childLayout=stackLayout;horizontal=1;startSize=26;horizontalStack=0;resizeParent=1;resizeParentMax=0;resizeLast=0;collapsible=1;marginBottom=0;whiteSpace=wrap;html=1;" vertex="1" parent="WIyWlLk6GJQsqaUBKTNV-1">
          <mxGeometry x="490" y="660" width="310" height="200" as="geometry" />
        </mxCell>
        <mxCell id="bq4Kn2e6vNmMjqOHsvpG-9" value="&lt;br&gt;&lt;div&gt;-&amp;nbsp;departamento: String&lt;br&gt;&lt;/div&gt;" style="text;strokeColor=none;fillColor=none;align=left;verticalAlign=top;spacingLeft=4;spacingRight=4;overflow=hidden;rotatable=0;points=[[0,0.5],[1,0.5]];portConstraint=eastwest;whiteSpace=wrap;html=1;" vertex="1" parent="bq4Kn2e6vNmMjqOHsvpG-8">
          <mxGeometry y="26" width="310" height="94" as="geometry" />
        </mxCell>
        <mxCell id="bq4Kn2e6vNmMjqOHsvpG-10" value="" style="line;strokeWidth=1;fillColor=none;align=left;verticalAlign=middle;spacingTop=-1;spacingLeft=3;spacingRight=3;rotatable=0;labelPosition=right;points=[];portConstraint=eastwest;strokeColor=inherit;" vertex="1" parent="bq4Kn2e6vNmMjqOHsvpG-8">
          <mxGeometry y="120" width="310" height="8" as="geometry" />
        </mxCell>
        <mxCell id="bq4Kn2e6vNmMjqOHsvpG-11" value="&amp;nbsp;" style="text;strokeColor=none;fillColor=none;align=left;verticalAlign=top;spacingLeft=4;spacingRight=4;overflow=hidden;rotatable=0;points=[[0,0.5],[1,0.5]];portConstraint=eastwest;whiteSpace=wrap;html=1;" vertex="1" parent="bq4Kn2e6vNmMjqOHsvpG-8">
          <mxGeometry y="128" width="310" height="72" as="geometry" />
        </mxCell>
        <mxCell id="bq4Kn2e6vNmMjqOHsvpG-13" value="" style="endArrow=none;html=1;edgeStyle=orthogonalEdgeStyle;rounded=0;exitX=0;exitY=0.5;exitDx=0;exitDy=0;entryX=0.445;entryY=-0.011;entryDx=0;entryDy=0;entryPerimeter=0;" edge="1" parent="WIyWlLk6GJQsqaUBKTNV-1" source="bq4Kn2e6vNmMjqOHsvpG-1" target="bq4Kn2e6vNmMjqOHsvpG-4">
          <mxGeometry relative="1" as="geometry">
            <mxPoint x="320" y="630" as="sourcePoint" />
            <mxPoint x="480" y="630" as="targetPoint" />
          </mxGeometry>
        </mxCell>
        <mxCell id="bq4Kn2e6vNmMjqOHsvpG-14" value="parent" style="edgeLabel;resizable=0;html=1;align=left;verticalAlign=bottom;" connectable="0" vertex="1" parent="bq4Kn2e6vNmMjqOHsvpG-13">
          <mxGeometry x="-1" relative="1" as="geometry">
            <mxPoint x="-43" as="offset" />
          </mxGeometry>
        </mxCell>
        <mxCell id="bq4Kn2e6vNmMjqOHsvpG-15" value="child" style="edgeLabel;resizable=0;html=1;align=right;verticalAlign=bottom;" connectable="0" vertex="1" parent="bq4Kn2e6vNmMjqOHsvpG-13">
          <mxGeometry x="1" relative="1" as="geometry" />
        </mxCell>
        <mxCell id="bq4Kn2e6vNmMjqOHsvpG-16" value="" style="endArrow=none;html=1;edgeStyle=orthogonalEdgeStyle;rounded=0;entryX=0.649;entryY=-0.011;entryDx=0;entryDy=0;entryPerimeter=0;exitX=1;exitY=0.5;exitDx=0;exitDy=0;" edge="1" parent="WIyWlLk6GJQsqaUBKTNV-1" source="bq4Kn2e6vNmMjqOHsvpG-1" target="bq4Kn2e6vNmMjqOHsvpG-8">
          <mxGeometry relative="1" as="geometry">
            <mxPoint x="570" y="480" as="sourcePoint" />
            <mxPoint x="730" y="480" as="targetPoint" />
            <Array as="points">
              <mxPoint x="580" y="480" />
              <mxPoint x="691" y="480" />
            </Array>
          </mxGeometry>
        </mxCell>
        <mxCell id="bq4Kn2e6vNmMjqOHsvpG-17" value="parent" style="edgeLabel;resizable=0;html=1;align=left;verticalAlign=bottom;" connectable="0" vertex="1" parent="bq4Kn2e6vNmMjqOHsvpG-16">
          <mxGeometry x="-1" relative="1" as="geometry" />
        </mxCell>
        <mxCell id="bq4Kn2e6vNmMjqOHsvpG-18" value="child" style="edgeLabel;resizable=0;html=1;align=right;verticalAlign=bottom;" connectable="0" vertex="1" parent="bq4Kn2e6vNmMjqOHsvpG-16">
          <mxGeometry x="1" relative="1" as="geometry" />
        </mxCell>
        <mxCell id="bq4Kn2e6vNmMjqOHsvpG-19" value="Prestamo" style="swimlane;fontStyle=1;align=center;verticalAlign=top;childLayout=stackLayout;horizontal=1;startSize=26;horizontalStack=0;resizeParent=1;resizeParentMax=0;resizeLast=0;collapsible=1;marginBottom=0;whiteSpace=wrap;html=1;" vertex="1" parent="WIyWlLk6GJQsqaUBKTNV-1">
          <mxGeometry x="490" y="120" width="310" height="200" as="geometry" />
        </mxCell>
        <mxCell id="bq4Kn2e6vNmMjqOHsvpG-20" value="- libro: Libro&lt;div&gt;- usuario: Usuario&lt;/div&gt;&lt;div&gt;- fechaPrestamo: Date&lt;/div&gt;&lt;div&gt;- fechaDevolucion: Date&lt;/div&gt;&lt;div&gt;&lt;br&gt;&lt;/div&gt;" style="text;strokeColor=none;fillColor=none;align=left;verticalAlign=top;spacingLeft=4;spacingRight=4;overflow=hidden;rotatable=0;points=[[0,0.5],[1,0.5]];portConstraint=eastwest;whiteSpace=wrap;html=1;" vertex="1" parent="bq4Kn2e6vNmMjqOHsvpG-19">
          <mxGeometry y="26" width="310" height="94" as="geometry" />
        </mxCell>
        <mxCell id="bq4Kn2e6vNmMjqOHsvpG-21" value="" style="line;strokeWidth=1;fillColor=none;align=left;verticalAlign=middle;spacingTop=-1;spacingLeft=3;spacingRight=3;rotatable=0;labelPosition=right;points=[];portConstraint=eastwest;strokeColor=inherit;" vertex="1" parent="bq4Kn2e6vNmMjqOHsvpG-19">
          <mxGeometry y="120" width="310" height="8" as="geometry" />
        </mxCell>
        <mxCell id="bq4Kn2e6vNmMjqOHsvpG-22" value="+ registrarPréstamo(Prestamo objPrestamo): boolean&lt;div&gt;+ registrarDevolución(Prestamo objPrestamo): boolean&lt;/div&gt;&lt;div&gt;&lt;br&gt;&lt;/div&gt;" style="text;strokeColor=none;fillColor=none;align=left;verticalAlign=top;spacingLeft=4;spacingRight=4;overflow=hidden;rotatable=0;points=[[0,0.5],[1,0.5]];portConstraint=eastwest;whiteSpace=wrap;html=1;" vertex="1" parent="bq4Kn2e6vNmMjqOHsvpG-19">
          <mxGeometry y="128" width="310" height="72" as="geometry" />
        </mxCell>
      </root>
    </mxGraphModel>
  </diagram>
</mxfile>
